<svg xmlns="http://www.w3.org/2000/svg" width="512" height="256" viewBox="0 0 792 396"><path d="M0 323.806s0 71.89 71.997 71.89h648.006C792 395.693 792 323.805 792 323.805V72.194S792 .305 720.003.305H71.997C0 .306 0 72.195 0 72.195zM29.978 198c0-19.84 16.104-35.944 35.944-35.944 19.842 0 35.944 16.103 35.944 35.944 0 19.842-16.103 35.944-35.944 35.944S29.978 217.842 29.978 198zm718.134-53.917c4.457 0 7.944 2.121 7.944 4.78v98.272c0 2.624-3.559 4.781-7.944 4.781h-2.121c-4.457 0-7.944-2.157-7.944-4.78v-98.273c0-2.624 3.559-4.78 7.944-4.78zM702.139 36.25v323.5H127.028V36.25z" fill="#241f1c"/><text style="line-height:125%;-inkscape-font-specification:'Roboto, Normal';font-variant-ligatures:normal;font-variant-caps:normal;font-variant-numeric:normal;font-feature-settings:normal;text-align:start" x="217.032" y="191.132" transform="scale(.71273 1.40306)" font-weight="400" font-size="198.35" font-family="Roboto" letter-spacing="0" word-spacing="0" fill="#241f1c" stroke-width="4.958"><tspan x="217.032" y="191.132" style="-inkscape-font-specification:'Roboto, Normal';font-variant-ligatures:normal;font-variant-caps:normal;font-variant-numeric:normal;font-feature-settings:normal;text-align:start">Appman</tspan></text></svg>